<?xml version="1.0" encoding="utf-8"?>
<!-- Generator: Adobe Illustrator 23.0.4, SVG Export Plug-In . SVG Version: 6.00 Build 0)  -->
<svg version="1.1" id="Layer_1" xmlns="http://www.w3.org/2000/svg" xmlns:xlink="http://www.w3.org/1999/xlink" x="0px" y="0px"
	 viewBox="0 0 1379.5 507" style="enable-background:new 0 0 1379.5 507;" xml:space="preserve">
<style type="text/css">
	.st0{fill:#FFFFFF;}
	.st1{enable-background:new    ;}
</style>
<title>Benebox_Logo_H</title>
<g>
	<g id="Layer_1-2">
		<polygon class="st0" points="92.2,0 92.2,332 190.8,391.6 190.8,507 0,391.8 0,50.6 		"/>
		<polygon class="st0" points="0,163.5 92.7,222.8 191.1,166.6 285.4,223 380.4,168.1 191.1,53.8 		"/>
		<polygon class="st0" points="190.8,391.6 287.6,335.7 285.4,223 380.4,168.1 380.3,391.5 190.8,507 		"/>
		<g class="st1">
			<path class="st0" d="M539,277c0,11.3-4,21.2-11.9,29.5s-19,12.5-33.3,12.5h-59.4V172.7h56.8c12.5,0,22.4,3.8,29.3,11.1
				c7.1,7.3,10.7,15.8,10.7,25.5c0,13.3-7.7,25.1-19.8,29.7C529.1,243.9,539,259.4,539,277z M452.7,190.1v42h35.8
				c15,0,24-10.1,24-22c0-10.9-8.9-20-23.4-20H452.7z M491.1,301.5c8.9,0,15.8-2.6,21-7.7c5.3-5.1,7.9-11.1,7.9-18
				c0-14.5-10.7-26.5-29.9-26.5h-37.4v52.3L491.1,301.5L491.1,301.5z"/>
			<path class="st0" d="M567,319V172.7h89.7v17.4h-71.5v45.7h66.1v17.4h-66.1v48.3h71.7V319H567z"/>
			<path class="st0" d="M784.9,172.7h18.2V319h-8.7L705,213v106h-18.2V172.7h7.3L785,279.2L784.9,172.7L784.9,172.7z"/>
			<path class="st0" d="M840.8,319V172.7h89.7v17.4H859v45.7h66.1v17.4H859v48.3h71.7V319H840.8z"/>
			<path class="st0" d="M1065.1,277c0,11.3-4,21.2-11.9,29.5s-19,12.5-33.3,12.5h-59.4V172.7h56.8c12.5,0,22.4,3.8,29.3,11.1
				c7.1,7.3,10.7,15.8,10.7,25.5c0,13.3-7.7,25.1-19.8,29.7C1055.2,243.9,1065.1,259.4,1065.1,277z M978.8,190.1v42h35.8
				c15,0,24-10.1,24-22c0-10.9-8.9-20-23.4-20H978.8z M1017.2,301.5c8.9,0,15.8-2.6,21-7.7c5.3-5.1,7.9-11.1,7.9-18
				c0-14.5-10.7-26.5-29.9-26.5h-37.4v52.3L1017.2,301.5L1017.2,301.5z"/>
		</g>
		<g class="st1">
			<path class="st0" d="M1099.2,192.4c14.8-14.8,32.7-22.4,53.5-22.4s38.6,7.5,53.5,22.4s22.2,32.7,22.2,53.5s-7.5,38.6-22.4,53.5
				c-14.8,14.7-32.9,22-54,22c-21.2,0-39-7.1-53.5-21.6c-14.3-14.5-21.4-32.1-21.4-53.1C1077,225.5,1084.3,207.3,1099.2,192.4z
				 M1192.8,287.1c10.9-10.9,16.4-24.5,16.4-41s-5.5-30.3-16.4-41.4c-10.9-11.1-24.4-16.6-40.2-16.6s-29.3,5.5-40.2,16.8
				c-10.9,11.1-16.4,24.7-16.4,41.2c0,16.2,5.3,29.9,16.2,41c10.9,10.9,24.4,16.4,40.4,16.4C1168.4,303.5,1181.9,298,1192.8,287.1z"
				/>
		</g>
		<g class="st1">
			<path class="st0" d="M1234,319l48.9-74.2l-46.7-72.1h21.4l36.2,58l36.4-58h22.2l-48.1,72.1L1353,319h-21.4l-37.8-59l-37.6,59
				H1234z"/>
		</g>
		<g class="st1">
			<path class="st0" d="M457,389.8c0,2.3-0.8,4.3-2.4,6s-3.9,2.5-6.8,2.5h-12.1v-29.7h11.6c2.5,0,4.5,0.8,6,2.3
				c1.4,1.5,2.2,3.2,2.2,5.2c0,2.7-1.6,5.1-4,6C455,383.1,457,386.2,457,389.8z M439.5,372.1v8.5h7.3c3.1,0,4.9-2.1,4.9-4.5
				c0-2.2-1.8-4.1-4.8-4.1h-7.4V372.1z M447.3,394.8c1.8,0,3.2-0.5,4.3-1.6c1.1-1,1.6-2.3,1.6-3.7c0-2.9-2.2-5.4-6.1-5.4h-7.6v10.6
				h7.8V394.8z"/>
			<path class="st0" d="M482.8,398.3v-29.7H501v3.5h-14.5v9.3H500v3.5h-13.4v9.8h14.6v3.5h-18.4V398.3z"/>
			<path class="st0" d="M547.3,368.6h3.7v29.7h-1.8L531,376.8v21.5h-3.7v-29.7h1.5l18.5,21.7V368.6z"/>
			<path class="st0" d="M578.8,398.3v-29.7H597v3.5h-14.5v9.3h13.4v3.5h-13.4v9.8H597v3.5h-18.2V398.3z"/>
			<path class="st0" d="M623.3,398.3v-29.7h18v3.6H627v9.2h12.4v3.6H627v13.3H623.3z"/>
			<path class="st0" d="M666.3,368.6h3.7v29.7h-3.7V368.6z"/>
			<path class="st0" d="M700.2,394.5c-2.9-2.9-4.4-6.5-4.4-10.9c0-4.5,1.5-8.2,4.5-11.1s6.6-4.4,10.9-4.4c2.7,0,5.2,0.6,7.5,1.8
				c2.3,1.2,4.1,2.8,5.4,4.8l-2.8,2.3c-2.4-3.2-5.9-5.2-10-5.2c-3.3,0-6,1.1-8.3,3.4s-3.4,5.1-3.4,8.5s1.1,6.2,3.3,8.3
				s5,3.3,8.3,3.3c4.2,0,7.6-1.7,10.2-5.2l2.7,2.3c-2.8,3.9-7.6,6.4-13,6.4C706.8,398.8,703.2,397.4,700.2,394.5z"/>
			<path class="st0" d="M749.2,368.6h3.7v29.7h-3.7V368.6z"/>
		</g>
		<g class="st1">
			<path class="st0" d="M780.5,372.6c3-3,6.6-4.5,10.9-4.5s7.8,1.5,10.9,4.5c3,3,4.5,6.6,4.5,10.9s-1.5,7.8-4.5,10.9
				c-3,3-6.7,4.5-11,4.5s-7.9-1.4-10.9-4.4c-2.9-2.9-4.3-6.5-4.3-10.8C776,379.3,777.5,375.6,780.5,372.6z M799.5,391.8
				c2.2-2.2,3.3-5,3.3-8.3s-1.1-6.2-3.3-8.4s-5-3.4-8.2-3.4s-6,1.1-8.2,3.4s-3.3,5-3.3,8.4c0,3.3,1.1,6.1,3.3,8.3
				c2.2,2.2,5,3.3,8.2,3.3C794.6,395.2,797.3,394.1,799.5,391.8z"/>
		</g>
		<g class="st1">
			<path class="st0" d="M829.9,392.6l2.9-2.2c1.6,3.3,4.1,4.8,7,4.8c3.5,0,5.6-2.1,5.6-4.7c0-1.7-1-3.1-3.1-4.3
				c-0.6-0.3-1.6-0.8-3.1-1.5s-2.6-1.3-3.3-1.7c-2.9-1.9-4.4-4.2-4.4-7c0-2.3,0.8-4.1,2.4-5.6c1.6-1.5,3.7-2.3,6.4-2.3
				c3.7,0,6.5,1.5,8.6,4.4l-2.7,2.3c-1.6-2.2-3.5-3.3-5.9-3.3c-2.7,0-4.8,1.7-4.8,4.2c0,1.6,0.8,2.9,2.5,4c0.5,0.3,1.7,0.9,3.5,1.8
				c1.9,0.9,3.1,1.5,3.8,2c2.8,1.7,4.2,4,4.2,6.8c0,2.5-0.9,4.5-2.8,6.1c-1.8,1.6-4.1,2.3-6.9,2.3
				C835.7,398.8,831.8,396.6,829.9,392.6z"/>
		</g>
		<g class="st1">
			<path class="st0" d="M921.1,398.3l-3.1-7.9h-11.4l-3.1,7.9h-4.1l12.1-29.7h1.8l12,29.7H921.1z M912.3,375.4l-4.4,11.4h8.9
				L912.3,375.4z"/>
		</g>
		<g class="st1">
			<path class="st0" d="M979.2,398.3v-29.7h10.9c4.2,0,7.5,1.3,9.9,4c2.5,2.7,3.7,6.3,3.7,10.9c0,4.5-1.2,8.2-3.7,10.8
				c-2.5,2.7-5.9,4-10.3,4L979.2,398.3L979.2,398.3z M982.9,394.8h7c3.1,0,5.6-1,7.4-3.2c1.8-2.1,2.7-4.9,2.7-8.2
				c0-3.3-0.9-6-2.7-8.1c-1.7-2.1-4.2-3.2-7.3-3.2h-7v22.7H982.9z"/>
			<path class="st0" d="M1032.3,372.6c3-3,6.6-4.5,10.9-4.5s7.8,1.5,10.9,4.5c3,3,4.5,6.6,4.5,10.9s-1.5,7.8-4.5,10.9
				c-3,3-6.7,4.5-11,4.5s-7.9-1.4-10.9-4.4c-2.9-2.9-4.3-6.5-4.3-10.8C1027.8,379.3,1029.3,375.6,1032.3,372.6z M1051.4,391.8
				c2.2-2.2,3.3-5,3.3-8.3s-1.1-6.2-3.3-8.4s-5-3.4-8.2-3.4s-6,1.1-8.2,3.4s-3.3,5-3.3,8.4c0,3.3,1.1,6.1,3.3,8.3
				c2.2,2.2,5,3.3,8.2,3.3C1046.4,395.2,1049.2,394.1,1051.4,391.8z"/>
			<path class="st0" d="M1084.4,398.3v-29.7h1.6l13,19.2l12.9-19.2h1.7v29.7h-3.7v-20.6l-10.4,15.4h-0.9l-10.4-15.4v20.6H1084.4z"/>
			<path class="st0" d="M1141.4,368.6h3.7v29.7h-3.7V368.6z"/>
			<path class="st0" d="M1175.4,394.5c-2.9-2.9-4.4-6.5-4.4-10.9c0-4.5,1.5-8.2,4.5-11.1s6.6-4.4,10.9-4.4c2.7,0,5.2,0.6,7.5,1.8
				c2.3,1.2,4.1,2.8,5.4,4.8l-2.8,2.3c-2.4-3.2-5.9-5.2-10-5.2c-3.3,0-6,1.1-8.3,3.4s-3.4,5.1-3.4,8.5s1.1,6.2,3.3,8.3
				s5,3.3,8.3,3.3c4.2,0,7.6-1.7,10.2-5.2l2.7,2.3c-2.8,3.9-7.6,6.4-13,6.4C1182,398.8,1178.4,397.4,1175.4,394.5z"/>
			<path class="st0" d="M1224.3,368.6h3.7v29.7h-3.7V368.6z"/>
			<path class="st0" d="M1255.8,398.3v-29.7h3.7v26.1h16.1v3.6H1255.8z"/>
			<path class="st0" d="M1300.1,368.6h3.7v29.7h-3.7V368.6z"/>
			<path class="st0" d="M1334.2,372.6c3-3,6.6-4.5,10.9-4.5s7.8,1.5,10.9,4.5c3,3,4.5,6.6,4.5,10.9s-1.5,7.8-4.5,10.9
				c-3,3-6.7,4.5-11,4.5s-7.9-1.4-10.9-4.4c-2.9-2.9-4.3-6.5-4.3-10.8C1329.6,379.3,1331.1,375.6,1334.2,372.6z M1353.2,391.8
				c2.2-2.2,3.3-5,3.3-8.3s-1.1-6.2-3.3-8.4s-5-3.4-8.2-3.4s-6,1.1-8.2,3.4s-3.3,5-3.3,8.4c0,3.3,1.1,6.1,3.3,8.3
				c2.2,2.2,5,3.3,8.2,3.3C1348.2,395.2,1351,394.1,1353.2,391.8z"/>
		</g>
	</g>
</g>
</svg>
