<?xml version="1.0" encoding="utf-8"?>
<!-- Generator: Adobe Illustrator 23.0.4, SVG Export Plug-In . SVG Version: 6.00 Build 0)  -->
<svg version="1.1" id="Capa_1" xmlns="http://www.w3.org/2000/svg" xmlns:xlink="http://www.w3.org/1999/xlink" x="0px" y="0px"
	 viewBox="0 0 500 350" style="enable-background:new 0 0 500 350;" xml:space="preserve">
<style type="text/css">
	.st0{opacity:0.41;}
	.st1{fill:#678E96;}
	.st2{opacity:0.88;}
	.st3{fill:#556A8C;}
	.st4{opacity:0.31;fill:#678E96;}
	.st5{fill:#243762;}
	.st6{fill:#FFFFFF;}
	.st7{fill:#ECF1F7;}
	.st8{fill:#789599;}
	.st9{opacity:0.33;fill:#556A8C;}
	.st10{opacity:0.29;fill:#243762;}
	.st11{fill:#F7A9B4;}
	.st12{opacity:0.35;fill:#789599;}
</style>
<g>
	<g>
		<g class="st0">
			<g>
				<path class="st1" d="M216.5,330.8c6.8,0.3,13.5,0.3,20.3-0.3c31.6-2.6,61.4-14.8,82.5-33.1c7.5-6.5,14.3-13.9,24.2-18.1
					c16.7-7.1,35.8-6.4,52.3-15.2c16.5-8.8,29.4-21.7,36.1-36.3c19.9-43.6-11.7-104.9-80.1-99.9c-0.2,0-0.6,0-1.1,0.1
					c-14.2,0.6-26.1-8-26.4-18.9c-1-40.3-41.1-75.3-92.2-83c-32.8-5-68.9,2.6-92.3,21c-17.4,13.7-27.1,32.2-33.8,50.7
					C92.8,134.9,89.8,174,94.5,212.4c4.5,35.9,17.6,73.9,53.4,97.4C167,322.3,191.5,329.6,216.5,330.8z"/>
			</g>
		</g>
		<g class="st2">
			<g>
				<path class="st3" d="M213.4,297.7c5.3,0.3,10.6,0.2,15.9-0.2c24.7-2,48.1-11.6,64.7-25.9c5.9-5.1,11.2-10.9,19-14.2
					c13.1-5.5,28.1-5,41-11.9c12.9-6.9,23.1-17,28.3-28.5c15.6-34.1-9.2-82.2-62.7-78.2c-0.2,0-0.5,0-0.8,0
					c-11.1,0.5-20.4-6.3-20.6-14.8c-0.8-31.6-32.2-59-72.2-65c-25.7-3.9-54,2-72.3,16.4c-13.7,10.7-21.2,25.2-26.5,39.7
					c-10.5,29.1-12.8,59.7-9.1,89.8c3.5,28.2,13.8,57.9,41.8,76.3C174.7,291,193.9,296.7,213.4,297.7z"/>
			</g>
		</g>
		
			<ellipse transform="matrix(6.271834e-03 -1 1 6.271834e-03 70.3039 697.5229)" class="st4" cx="386.1" cy="313.4" rx="9.9" ry="12.8"/>
		
			<ellipse transform="matrix(6.280770e-03 -1 1 6.280770e-03 302.8321 498.6502)" class="st4" cx="402.3" cy="97" rx="11.4" ry="14.8"/>
		
			<ellipse transform="matrix(6.276632e-03 -1 1 6.276632e-03 90.1444 144.115)" class="st4" cx="117.6" cy="26.7" rx="14.8" ry="19.2"/>
	</g>
	<g>
		<g>
			<circle class="st3" cx="217.5" cy="119.4" r="52.3"/>
			<path class="st5" d="M253.9,157.1c-0.1,0-0.3,0-0.4-0.1c-0.2-0.2-0.2-0.5,0-0.7c9.8-9.8,15.2-22.8,15.2-36.6
				c0-13.8-5.4-26.9-15.2-36.6c-9.8-9.8-22.8-15.2-36.6-15.2s-26.9,5.4-36.6,15.2c-0.2,0.2-0.5,0.2-0.7,0c-0.2-0.2-0.2-0.5,0-0.7
				c10-10,23.2-15.5,37.4-15.5s27.4,5.5,37.4,15.5c10,10,15.5,23.2,15.5,37.4s-5.5,27.4-15.5,37.4C254.1,157,254,157.1,253.9,157.1z
				"/>
			<circle class="st6" cx="217.5" cy="119.4" r="39.8"/>
			<path class="st5" d="M217.5,159.7c-22.2,0-40.3-18.1-40.3-40.3s18.1-40.3,40.3-40.3c0.3,0,0.5,0.2,0.5,0.5c0,0.3-0.2,0.5-0.5,0.5
				c-21.7,0-39.3,17.6-39.3,39.3c0,21.7,17.6,39.3,39.3,39.3c0.3,0,0.5,0.2,0.5,0.5C218,159.5,217.8,159.7,217.5,159.7z"/>
			<path class="st5" d="M227.9,127H217c-2.2,0-4-1.8-4-4v-15c0-1.9,1.6-3.5,3.5-3.5c1.9,0,3.5,1.6,3.5,3.5v12h7.9
				c1.9,0,3.5,1.6,3.5,3.5S229.8,127,227.9,127z"/>
		</g>
	</g>
	<g>
		<path d="M136.3,137.6l56.4,56.4c11,11,28.9,11,39.9,0l6.7-6.7c2.5-2.5,2.5-6.7,0-9.2l-23-23c-2.5-2.5-6.7-2.5-9.2,0l-11.5,11.5
			c-0.9,0.9-2.4,0.9-3.3,0l-27.9-27.9c-0.9-0.9-0.9-2.3,0-3.2l11.3-11.3c2.5-2.5,2.5-6.7,0-9.2l-23.6-23.6c-2.5-2.5-6.6-2.5-9.1-0.1
			l-6.4,6.2C125.3,108.3,125.1,126.4,136.3,137.6z"/>
		<g>
			<path class="st7" d="M138.1,98.4l31.7,31.7l1.1-1.1l5-5c2.5-2.5,2.5-6.7,0-9.2l-23.6-23.6c-2.5-2.5-6.6-2.5-9.1-0.1l-6.4,6.2
				L138.1,98.4z"/>
			<path class="st5" d="M169.7,130.8l-32-32l-1.8-1.5l6.8-6.6c2.7-2.6,7.1-2.6,9.8,0.1l23.6,23.6c2.7,2.7,2.7,7.2,0,9.9L169.7,130.8
				z M137.4,97.3l1,0.8l31.3,31.3l5.7-5.7c1.1-1.1,1.8-2.6,1.8-4.3c0-1.6-0.6-3.1-1.8-4.3l-23.6-23.6c-2.3-2.3-6.1-2.3-8.4-0.1
				L137.4,97.3z"/>
		</g>
		<g>
			<path class="st7" d="M202.5,161.8l31.7,31.7l1.1-1.1l5-5c2.5-2.5,2.5-6.7,0-9.2l-23.6-23.6c-2.5-2.5-6.6-2.5-9.1-0.1l-6.4,6.2
				L202.5,161.8z"/>
			<path class="st5" d="M234.2,194.2l-32-32l-1.8-1.5l6.8-6.6c2.7-2.6,7.1-2.6,9.8,0.1l23.6,23.6c1.3,1.3,2.1,3.1,2.1,5
				s-0.7,3.6-2.1,5L234.2,194.2z M201.8,160.6l1,0.8l31.3,31.3l5.7-5.7c1.1-1.1,1.8-2.6,1.8-4.3c0-1.6-0.6-3.1-1.8-4.3l-23.6-23.6
				c-2.3-2.3-6.1-2.3-8.4-0.1L201.8,160.6z"/>
		</g>
		<g>
			<line class="st7" x1="140.5" y1="94.7" x2="159.8" y2="114"/>
			<path class="st5" d="M159.8,114.5c-0.1,0-0.3,0-0.4-0.1L140.1,95c-0.2-0.2-0.2-0.5,0-0.7c0.2-0.2,0.5-0.2,0.7,0l19.3,19.3
				c0.2,0.2,0.2,0.5,0,0.7C160,114.4,159.9,114.5,159.8,114.5z"/>
		</g>
		<g>
			<line class="st7" x1="217.3" y1="171.5" x2="236.6" y2="190.8"/>
			<path class="st5" d="M236.6,191.3c-0.1,0-0.3,0-0.4-0.1l-19.3-19.3c-0.2-0.2-0.2-0.5,0-0.7c0.2-0.2,0.5-0.2,0.7,0l19.3,19.3
				c0.2,0.2,0.2,0.5,0,0.7C236.8,191.2,236.7,191.3,236.6,191.3z"/>
		</g>
	</g>
	<g>
		<path d="M321.3,289.9L247.4,279c-8.4-1.2-14.1-9-12.9-17.4L261,82.4c1.2-8.4,9-14.1,17.4-12.9l73.9,10.9c8.4,1.2,14.1,9,12.9,17.4
			L338.6,277C337.4,285.4,329.6,291.2,321.3,289.9z"/>
		
			<rect x="214.6" y="131.3" transform="matrix(0.1463 -0.9892 0.9892 0.1463 80.4388 448.5481)" class="st7" width="171" height="92.7"/>
		
			<rect x="305.3" y="53" transform="matrix(0.1463 -0.9892 0.9892 0.1463 167.7332 393.1932)" class="st3" width="12.8" height="92.7"/>
		<path class="st7" d="M286,278.8c-0.3,0-0.6,0-0.9-0.1c-1.6-0.2-3-1.1-3.9-2.4c-1-1.3-1.3-2.9-1.1-4.4c0.2-1.6,1.1-3,2.4-3.9
			c1.3-1,2.9-1.4,4.4-1.1c1.6,0.2,3,1.1,3.9,2.4c1,1.3,1.3,2.9,1.1,4.4C291.5,276.6,289,278.8,286,278.8z M286,267.8
			c-1.1,0-2.1,0.3-3,1c-1.1,0.8-1.8,2-2,3.3c-0.2,1.3,0.1,2.6,0.9,3.7c0.8,1.1,2,1.8,3.3,2c2.7,0.4,5.3-1.5,5.7-4.2
			c0.2-1.3-0.1-2.6-0.9-3.7c-0.8-1.1-2-1.8-3.3-2C286.5,267.8,286.3,267.8,286,267.8z"/>
		<path class="st7" d="M299.3,84.7c-0.1,0-0.2,0-0.3,0c-0.5-0.1-1-0.3-1.3-0.8c-0.3-0.4-0.4-0.9-0.4-1.4c0.1-0.5,0.3-1,0.8-1.3
			c0.4-0.3,0.9-0.4,1.4-0.4c0.5,0.1,1,0.3,1.3,0.8c0.3,0.4,0.4,0.9,0.4,1.4v0C301.1,84,300.2,84.7,299.3,84.7z M299.3,81.8
			c-0.2,0-0.4,0.1-0.5,0.2c-0.2,0.1-0.3,0.4-0.4,0.6c0,0.2,0,0.5,0.2,0.7c0.1,0.2,0.4,0.3,0.6,0.4c0.2,0,0.5,0,0.7-0.2
			c0.2-0.1,0.3-0.4,0.4-0.6l0,0c0-0.2,0-0.5-0.2-0.7c-0.1-0.2-0.4-0.3-0.6-0.4C299.4,81.8,299.3,81.8,299.3,81.8z"/>
		<path class="st7" d="M329.1,89.1c-0.1,0-0.2,0-0.3,0l-23.4-3.5c-0.5-0.1-1-0.3-1.3-0.8c-0.3-0.4-0.4-0.9-0.4-1.4
			c0.1-0.5,0.3-1,0.8-1.3c0.4-0.3,0.9-0.4,1.4-0.4l23.4,3.5c0.5,0.1,1,0.3,1.3,0.8c0.3,0.4,0.4,0.9,0.4,1.4c-0.1,0.5-0.3,1-0.8,1.3
			C329.9,88.9,329.5,89.1,329.1,89.1z M305.7,82.8c-0.5,0-0.8,0.3-0.9,0.8c0,0.2,0,0.5,0.2,0.7c0.1,0.2,0.4,0.3,0.6,0.4l23.4,3.5
			c0.5,0.1,1-0.3,1.1-0.8c0-0.2,0-0.5-0.2-0.7c-0.1-0.2-0.4-0.3-0.6-0.4l-23.4-3.5C305.8,82.8,305.7,82.8,305.7,82.8z"/>
		<path class="st1" d="M333.8,217.3l-64-9.5c-1-0.2-2,0.6-2.2,1.6l-2.5,16.6c-0.2,1,0.6,2,1.6,2.2l54.7,8.1l5.6,7.8l1-6.8l2.6,0.4
			c1,0.2,2-0.6,2.2-1.6l2.5-16.6C335.6,218.4,334.9,217.4,333.8,217.3z"/>
		<path class="st1" d="M344,148.5l-64-9.5c-1-0.2-2,0.6-2.2,1.6l-2.5,16.6c-0.2,1,0.6,2,1.6,2.2l54.7,8.1l5.6,7.8l1-6.8l2.6,0.4
			c1,0.2,2-0.6,2.2-1.6l2.5-16.6C345.8,149.6,345.1,148.6,344,148.5z"/>
		<path class="st3" d="M263,169.9l64,9.5c1,0.2,1.8,1.1,1.6,2.2l-2.5,16.6c-0.2,1-1.1,1.8-2.2,1.6l-54.7-8.1l-7.6,5.8l1-6.8
			l-2.6-0.4c-1-0.2-1.8-1.1-1.6-2.2l2.5-16.6C261,170.4,262,169.7,263,169.9z"/>
		
			<rect x="280.9" y="208.1" transform="matrix(0.1463 -0.9892 0.9892 0.1463 -5.254 502.8873)" class="st6" width="15.7" height="92.7"/>
		<path class="st8" d="M330.6,260.7c-0.5,3-3.3,5.2-6.3,4.7c-3-0.5-5.2-3.3-4.7-6.3c0.5-3,3.3-5.2,6.3-4.7
			C328.9,254.9,331,257.7,330.6,260.7z"/>
		<path class="st9" d="M310.2,262.9c-0.2,0-0.5,0-0.7-0.1L250,254c-1.3-0.2-2.5-0.9-3.3-2c-0.8-1.1-1.1-2.4-0.9-3.7
			c0.4-2.7,2.9-4.6,5.7-4.2L311,253c2.7,0.4,4.6,2.9,4.2,5.6C314.8,261.1,312.7,262.9,310.2,262.9z M309.6,261.8
			c2.2,0.3,4.2-1.2,4.5-3.4c0.2-1.1-0.1-2.1-0.7-3c-0.6-0.9-1.6-1.4-2.6-1.6l-59.5-8.8c-2.2-0.3-4.2,1.2-4.5,3.4
			c-0.2,1.1,0.1,2.1,0.7,3c0.6,0.9,1.6,1.4,2.6,1.6L309.6,261.8z"/>
		<path class="st6" d="M272.5,95.4c-0.1,0-0.2,0-0.3,0c-1.1-0.2-1.8-1.2-1.7-2.2c0.1-0.5,0.4-1,0.8-1.3c0.4-0.3,0.9-0.4,1.5-0.4
			c1.1,0.2,1.8,1.2,1.7,2.2l0,0C274.2,94.7,273.4,95.4,272.5,95.4z M272.5,92.5c-0.2,0-0.4,0.1-0.6,0.2c-0.2,0.2-0.3,0.4-0.4,0.6
			c0,0.3,0,0.5,0.2,0.7c0.2,0.2,0.4,0.3,0.6,0.4c0.5,0.1,1-0.3,1.1-0.8l0,0c0-0.3,0-0.5-0.2-0.7c-0.2-0.2-0.4-0.3-0.6-0.4
			C272.5,92.5,272.5,92.5,272.5,92.5z"/>
		<path class="st6" d="M277.9,96.2c-0.1,0-0.2,0-0.3,0c-1.1-0.2-1.8-1.2-1.7-2.2c0.2-1.1,1.2-1.8,2.2-1.7c0.5,0.1,1,0.3,1.3,0.8
			c0.3,0.4,0.4,0.9,0.4,1.5c-0.1,0.5-0.4,1-0.8,1.3C278.7,96.1,278.3,96.2,277.9,96.2z M277.9,93.3c-0.5,0-0.9,0.3-0.9,0.8
			c0,0.3,0,0.5,0.2,0.7c0.2,0.2,0.4,0.3,0.6,0.4c0.3,0,0.5,0,0.7-0.2c0.2-0.2,0.3-0.4,0.4-0.6l0,0c0-0.3,0-0.5-0.2-0.7
			c-0.2-0.2-0.4-0.3-0.6-0.4C278,93.3,277.9,93.3,277.9,93.3z"/>
		<path class="st6" d="M283.2,97c-0.1,0-0.2,0-0.3,0c-1.1-0.2-1.8-1.2-1.6-2.2c0.2-1.1,1.2-1.8,2.2-1.7c1.1,0.2,1.8,1.2,1.7,2.2
			C285,96.3,284.1,97,283.2,97z M283.2,94.1c-0.2,0-0.4,0.1-0.6,0.2c-0.2,0.2-0.3,0.4-0.4,0.6c0,0.3,0,0.5,0.2,0.7
			c0.2,0.2,0.4,0.3,0.6,0.4c0.5,0.1,1-0.3,1.1-0.8c0.1-0.5-0.3-1-0.8-1.1C283.3,94.1,283.2,94.1,283.2,94.1z"/>
		<path class="st5" d="M357.9,113.2C357.8,113.2,357.8,113.2,357.9,113.2l-85-12.6c-0.3,0-0.5-0.3-0.4-0.6c0-0.3,0.3-0.5,0.6-0.4
			l84.9,12.6c0.3,0,0.5,0.3,0.4,0.6C358.3,113.1,358.1,113.2,357.9,113.2z"/>
		<path class="st6" d="M322.5,221.1C322.4,221.1,322.4,221.1,322.5,221.1l-45.4-6.7c-0.3,0-0.5-0.3-0.4-0.6c0-0.3,0.3-0.5,0.6-0.4
			l45.3,6.7c0.3,0,0.5,0.3,0.4,0.6C322.9,220.9,322.7,221.1,322.5,221.1z"/>
		<path class="st6" d="M295.6,222.7C295.6,222.7,295.6,222.7,295.6,222.7l-19.4-2.9c-0.3,0-0.5-0.3-0.4-0.6c0-0.3,0.3-0.5,0.6-0.4
			l19.3,2.9c0.3,0,0.5,0.3,0.4,0.6C296.1,222.5,295.9,222.7,295.6,222.7z"/>
		<path class="st6" d="M289.1,226.9C289.1,226.9,289.1,226.9,289.1,226.9l-13.6-2c-0.3,0-0.5-0.3-0.4-0.6c0-0.3,0.3-0.5,0.6-0.4
			l13.5,2c0.3,0,0.5,0.3,0.4,0.6C289.6,226.7,289.4,226.9,289.1,226.9z"/>
		<path class="st6" d="M321.7,226.5C321.6,226.5,321.6,226.5,321.7,226.5l-20-3c-0.3,0-0.5-0.3-0.4-0.6c0-0.3,0.3-0.5,0.6-0.4
			l19.9,2.9c0.3,0,0.5,0.3,0.4,0.6C322.1,226.3,321.9,226.5,321.7,226.5z"/>
		<g>
			<path class="st6" d="M316.9,183.5C316.9,183.5,316.9,183.5,316.9,183.5l-45.4-6.7c-0.3,0-0.5-0.3-0.4-0.6c0-0.3,0.3-0.5,0.6-0.4
				l45.3,6.7c0.3,0,0.5,0.3,0.4,0.6C317.4,183.3,317.2,183.5,316.9,183.5z"/>
			<path class="st6" d="M290.1,185.1C290.1,185.1,290,185.1,290.1,185.1l-19.4-2.9c-0.3,0-0.5-0.3-0.4-0.6c0-0.3,0.3-0.5,0.6-0.4
				l19.3,2.9c0.3,0,0.5,0.3,0.4,0.6C290.6,184.9,290.3,185.1,290.1,185.1z"/>
			<path class="st6" d="M310.1,193.2C310.1,193.2,310.1,193.2,310.1,193.2l-39.2-6.1c-0.3,0-0.5-0.3-0.4-0.6c0-0.3,0.3-0.5,0.6-0.4
				l39.1,6.1c0.3,0,0.5,0.3,0.4,0.6C310.6,193,310.4,193.2,310.1,193.2z"/>
			<path class="st6" d="M316.1,188.9C316.1,188.9,316.1,188.9,316.1,188.9l-20-3c-0.3,0-0.5-0.3-0.4-0.6c0-0.3,0.3-0.5,0.6-0.4
				l19.9,2.9c0.3,0,0.5,0.3,0.4,0.6C316.6,188.7,316.4,188.9,316.1,188.9z"/>
		</g>
		<path class="st3" d="M271.2,107.5l64,9.5c1,0.2,1.8,1.1,1.6,2.2l-2.5,16.6c-0.2,1-1.1,1.8-2.2,1.6l-54.7-8.1l-7.6,5.8l1-6.8
			l-2.6-0.4c-1-0.2-1.8-1.1-1.6-2.2l2.5-16.6C269.2,108,270.2,107.3,271.2,107.5z"/>
		<g>
			<path class="st6" d="M325.1,121.1C325.1,121.1,325.1,121.1,325.1,121.1l-45.4-6.7c-0.3,0-0.5-0.3-0.4-0.6c0-0.3,0.3-0.5,0.6-0.4
				l45.3,6.7c0.3,0,0.5,0.3,0.4,0.6C325.6,120.9,325.4,121.1,325.1,121.1z"/>
			<path class="st6" d="M298.3,122.6C298.3,122.6,298.3,122.6,298.3,122.6l-19.4-2.9c-0.3,0-0.5-0.3-0.4-0.6c0-0.3,0.3-0.5,0.6-0.4
				l19.3,2.9c0.3,0,0.5,0.3,0.4,0.6C298.8,122.5,298.6,122.6,298.3,122.6z"/>
			<path class="st6" d="M318.4,130.8C318.3,130.8,318.3,130.8,318.4,130.8l-39.2-6.1c-0.3,0-0.5-0.3-0.4-0.6c0-0.3,0.3-0.5,0.6-0.4
				l39.1,6.1c0.3,0,0.5,0.3,0.4,0.6C318.8,130.6,318.6,130.8,318.4,130.8z"/>
			<path class="st6" d="M324.3,126.5C324.3,126.5,324.3,126.5,324.3,126.5l-20-3c-0.3,0-0.5-0.3-0.4-0.6c0-0.3,0.3-0.5,0.6-0.4
				l19.9,2.9c0.3,0,0.5,0.3,0.4,0.6C324.8,126.3,324.6,126.5,324.3,126.5z"/>
		</g>
		<path class="st6" d="M332.7,152.9C332.6,152.9,332.6,152.9,332.7,152.9l-45.4-6.7c-0.3,0-0.5-0.3-0.4-0.6c0-0.3,0.3-0.5,0.6-0.4
			l45.3,6.7c0.3,0,0.5,0.3,0.4,0.6C333.1,152.8,332.9,152.9,332.7,152.9z"/>
		<path class="st6" d="M305.8,154.5C305.8,154.5,305.8,154.5,305.8,154.5l-19.4-2.9c-0.3,0-0.5-0.3-0.4-0.6c0-0.3,0.3-0.5,0.6-0.4
			l19.3,2.9c0.3,0,0.5,0.3,0.4,0.6C306.3,154.3,306.1,154.5,305.8,154.5z"/>
		<path class="st6" d="M299.3,158.7C299.3,158.7,299.3,158.7,299.3,158.7l-13.6-2c-0.3,0-0.5-0.3-0.4-0.6c0-0.3,0.3-0.5,0.6-0.4
			l13.5,2c0.3,0,0.5,0.3,0.4,0.6C299.8,158.5,299.6,158.7,299.3,158.7z"/>
		<path class="st6" d="M331.9,158.4C331.8,158.4,331.8,158.3,331.9,158.4l-20-3c-0.3,0-0.5-0.3-0.4-0.6c0-0.3,0.3-0.5,0.6-0.4
			l19.9,2.9c0.3,0,0.5,0.3,0.4,0.6C332.3,158.2,332.1,158.4,331.9,158.4z"/>
	</g>
	<g>
		<g>
			<path class="st1" d="M240.5,274.6l-102.7,11.6c-2,0.2-3.8-1.2-4-3.2l-7.4-65.8c0-0.1,0.1-0.2,0.2-0.2l109.4-12.3
				c0.1,0,0.2,0.1,0.2,0.2l7.4,65.8C243.9,272.6,242.5,274.3,240.5,274.6z"/>
			<path class="st5" d="M137.5,286.6c-2.1,0-3.8-1.5-4.1-3.6l-7.4-65.8c0-0.4,0.2-0.7,0.6-0.8L236,204.2c0.4,0,0.7,0.2,0.8,0.6
				l7.4,65.8c0.1,1.1-0.2,2.1-0.9,3c-0.7,0.8-1.6,1.4-2.7,1.5l-102.7,11.6C137.8,286.6,137.6,286.6,137.5,286.6z M127,217.4
				l7.4,65.5c0.2,1.7,1.7,2.9,3.4,2.7l102.7-11.6l0.1,0.5l-0.1-0.5c0.8-0.1,1.5-0.5,2.1-1.1c0.5-0.6,0.7-1.4,0.6-2.3l-7.4-65.5
				L127,217.4z"/>
		</g>
		<path class="st10" d="M235.7,274.6l-92.8,11.6c-2,0.2,28.8-39.2,28.5-41.2l-44.9-27.8c0-0.1,0.1-0.2,0.2-0.2l109.4-12.3
			c0.1,0,0.2,0.1,0.2,0.2l-37.4,37C199.1,243.8,237.7,274.3,235.7,274.6z"/>
		<g>
			<path class="st11" d="M126.7,217l45.2-44.7c2.7-2.7,6.9-3.2,10.1-1.2l53.8,33.4c0.1,0.1,0.1,0.2,0,0.2L126.5,217"/>
			<path class="st5" d="M126.5,217.5l-0.1-0.7l-0.1-0.1l0.1-0.1l0,0l0,0l45.1-44.6c2.9-2.8,7.3-3.4,10.7-1.2l53.8,33.4
				c0.2,0.1,0.3,0.4,0.3,0.7c-0.1,0.3-0.3,0.4-0.5,0.5L126.5,217.5z M177.7,170.4c-2,0-3.9,0.8-5.4,2.2L128,216.3l106.5-12
				l-52.8-32.8C180.5,170.7,179.1,170.4,177.7,170.4z"/>
		</g>
		<path class="st1" d="M126.7,217l45.2-44.7c2.7-2.7,6.9-3.2,10.1-1.2l53.8,33.4c0.1,0.1,0.1,0.2,0,0.2L126.5,217"/>
		<g>
			<path class="st11" d="M176.9,238.1l-34,47.3l92.8-10.5L192,236.3C187.5,232.3,180.4,233.1,176.9,238.1z"/>
			<path class="st5" d="M141.8,286l34.7-48.2l0.4,0.3l-0.4-0.3c1.8-2.5,4.5-4.1,7.5-4.4c3-0.3,6.1,0.6,8.3,2.6l44.5,39.3L141.8,286z
				 M185.2,234.3c-0.4,0-0.7,0-1.1,0.1c-2.7,0.3-5.2,1.8-6.8,4L144,284.7l90.6-10.2l-42.8-37.8C189.9,235.1,187.6,234.3,185.2,234.3
				z"/>
		</g>
		<g>
			<path class="st6" d="M132.2,184.6l71.5-8.1c4.7-0.5,8.9,2.3,9.3,6.4l4.6,40.8L197.7,242l-26.3,3l-26-16.2l-4.5-39.5L132.2,184.6z
				"/>
			<path class="st5" d="M171.3,245.5L145,229l-4.4-39.5l-6.8-5.6l69.9-7.9c2.4-0.3,4.7,0.3,6.6,1.6c1.9,1.3,3,3.2,3.3,5.3l4.6,41
				l-20.2,18.6L171.3,245.5z M146,228.4l25.6,16l25.9-2.9l19.6-18l-4.6-40.5c-0.2-1.8-1.2-3.4-2.9-4.6c-1.7-1.1-3.8-1.6-5.9-1.4
				l-69.9,7.9l7.6,4L146,228.4z"/>
		</g>
		<path class="st10" d="M176.9,234l-34,51.4l92.8-10.5L192,232.3C187.5,228.2,180.4,229,176.9,234z"/>
		<g>
			<path class="st1" d="M176.9,238.1l-34,47.3l92.8-10.5L192,236.3C187.5,232.3,180.4,233.1,176.9,238.1z"/>
			<path class="st5" d="M141.8,286l34.7-48.2l0.4,0.3l-0.4-0.3c1.8-2.5,4.5-4.1,7.5-4.4c3-0.3,6.1,0.6,8.3,2.6l44.5,39.3L141.8,286z
				 M185.2,234.3c-0.4,0-0.7,0-1.1,0.1c-2.7,0.3-5.2,1.8-6.8,4L144,284.7l90.6-10.2l-42.8-37.8C189.9,235.1,187.6,234.3,185.2,234.3
				z"/>
		</g>
		<path class="st12" d="M180.2,248.5l-25,34.7l68.2-7.7l-32.1-28.3C188,244.3,182.8,244.9,180.2,248.5z"/>
		<g>
			<line class="st11" x1="126.7" y1="217.1" x2="171.4" y2="244.9"/>
			
				<rect x="148.6" y="204.7" transform="matrix(0.5289 -0.8487 0.8487 0.5289 -125.8264 235.3527)" class="st5" width="1" height="52.7"/>
		</g>
		<g>
			<line class="st11" x1="236.3" y1="204.7" x2="198.8" y2="241.9"/>
			
				<rect x="191.2" y="222.8" transform="matrix(0.7096 -0.7047 0.7047 0.7096 -94.1574 218.1485)" class="st5" width="52.7" height="1"/>
		</g>
		<g>
			<path class="st7" d="M143,207.4l-12.5,1.4l-2-17.8c-0.4-3.3,2-6.3,5.3-6.6l0.6-0.1c3.3-0.4,6.3,2,6.6,5.3L143,207.4z"/>
			<path class="st5" d="M130.1,209.4l-2.1-18.3c-0.2-1.7,0.3-3.4,1.4-4.8c1.1-1.4,2.6-2.2,4.3-2.4l0.6-0.1c1.7-0.2,3.4,0.3,4.8,1.4
				c1.4,1.1,2.2,2.6,2.4,4.3l2.1,18.3L130.1,209.4z M135.1,184.8c-0.2,0-0.4,0-0.6,0l-0.6,0.1c-1.5,0.2-2.8,0.9-3.7,2
				c-0.9,1.1-1.3,2.6-1.2,4l1.9,17.3l11.5-1.3l-2-17.3c-0.2-1.5-0.9-2.8-2-3.7C137.5,185.2,136.3,184.8,135.1,184.8z"/>
		</g>
		<path class="st5" d="M151.5,198.1c-0.3,0-0.5-0.2-0.5-0.4c0-0.3,0.2-0.5,0.4-0.6l51.8-5.8c0.3,0,0.5,0.2,0.6,0.4
			c0,0.3-0.2,0.5-0.4,0.6L151.5,198.1C151.5,198.1,151.5,198.1,151.5,198.1z"/>
		<path class="st5" d="M153.5,215.8c-0.3,0-0.5-0.2-0.5-0.4c0-0.3,0.2-0.5,0.4-0.6l51.8-5.8c0.3,0,0.5,0.2,0.6,0.4
			c0,0.3-0.2,0.5-0.4,0.6L153.5,215.8C153.5,215.8,153.5,215.8,153.5,215.8z"/>
		<path class="st5" d="M152.5,206.8c-0.3,0-0.5-0.2-0.5-0.4c0-0.3,0.2-0.5,0.4-0.6l22.4-2.5c0.3,0,0.5,0.2,0.6,0.4
			c0,0.3-0.2,0.5-0.4,0.6L152.5,206.8C152.5,206.8,152.5,206.8,152.5,206.8z"/>
		<path class="st5" d="M180.7,203.7c-0.3,0-0.5-0.2-0.5-0.4c0-0.3,0.2-0.5,0.4-0.6l23.6-2.7c0.3,0,0.5,0.2,0.6,0.4
			c0,0.3-0.2,0.5-0.4,0.6L180.7,203.7C180.8,203.7,180.7,203.7,180.7,203.7z"/>
		<path class="st5" d="M154.6,225.7c-0.3,0-0.5-0.2-0.5-0.4c0-0.3,0.2-0.5,0.4-0.6l22.4-2.5c0.3,0,0.5,0.2,0.6,0.4
			c0,0.3-0.2,0.5-0.4,0.6L154.6,225.7C154.6,225.7,154.6,225.7,154.6,225.7z"/>
	</g>
</g>
</svg>
